<svg xmlns="http://www.w3.org/2000/svg" width="1200" height="800" viewBox="0 0 1200 800" role="img" aria-labelledby="title desc">
  <title id="title">我是小导演，AI 帮我讲故事</title>
  <desc id="desc">孩子坐在书本舞台前，AI 小机器人把角色和冒险变成故事。</desc>
  <defs>
    <linearGradient id="bg" x1="0" y1="0" x2="0" y2="1">
      <stop offset="0%" stop-color="#fff0f6"/>
      <stop offset="55%" stop-color="#f8fff0"/>
      <stop offset="100%" stop-color="#eaf3ff"/>
    </linearGradient>
    <filter id="shadow" x="-20%" y="-20%" width="140%" height="140%">
      <feDropShadow dx="0" dy="12" stdDeviation="16" flood-color="#506070" flood-opacity="0.18"/>
    </filter>
  </defs>
  <rect width="1200" height="800" fill="url(#bg)"/>
  <circle cx="188" cy="146" r="78" fill="#ffcadb" opacity="0.65"/>
  <circle cx="1028" cy="190" r="96" fill="#c6f3dd" opacity="0.7"/>
  <rect x="94" y="130" width="1012" height="536" rx="42" fill="#fff" opacity="0.72" stroke="#ffd2a6" stroke-width="4"/>
  <g transform="translate(180 282)" filter="url(#shadow)">
    <path d="M50 210 C142 150 252 150 345 210 L345 306 C252 248 142 248 50 306 Z" fill="#fff5d8" stroke="#ffb657" stroke-width="6"/>
    <path d="M345 210 C438 150 548 150 640 210 L640 306 C548 248 438 248 345 306 Z" fill="#ffffff" stroke="#ffb657" stroke-width="6"/>
    <line x1="345" y1="210" x2="345" y2="306" stroke="#ffb657" stroke-width="6"/>
    <path d="M112 180 q48-56 96 0 t96 0" stroke="#7cc8ff" stroke-width="12" fill="none" stroke-linecap="round"/>
    <path d="M444 190 l38-68 38 68 z" fill="#62c9a5"/>
    <circle cx="482" cy="92" r="30" fill="#ffd76a"/>
    <rect x="434" y="188" width="98" height="44" rx="12" fill="#62c9a5"/>
    <path d="M184 170 l20 38 42 7 -30 30 7 42 -39-20 -38 20 7-42 -31-30 43-7z" fill="#ff8f7d"/>
  </g>
  <g transform="translate(176 394)" filter="url(#shadow)">
    <circle cx="94" cy="58" r="46" fill="#ffd0a8"/>
    <path d="M48 58 C58 12 134 2 148 56 C118 42 80 42 48 58Z" fill="#3d2b26"/>
    <circle cx="78" cy="54" r="5" fill="#2d1f1b"/>
    <circle cx="113" cy="54" r="5" fill="#2d1f1b"/>
    <path d="M80 77 q16 14 32 0" stroke="#2d1f1b" stroke-width="5" fill="none" stroke-linecap="round"/>
    <path d="M42 108 C62 88 126 88 150 108 L168 238 L24 238Z" fill="#ff8f7d"/>
    <rect x="0" y="154" width="72" height="26" rx="13" fill="#26334f" transform="rotate(-14 36 167)"/>
    <circle cx="16" cy="168" r="20" fill="#26334f"/>
  </g>
  <g transform="translate(824 360)" filter="url(#shadow)">
    <rect x="30" y="54" width="188" height="164" rx="40" fill="#eaf7ff" stroke="#6aa4ff" stroke-width="7"/>
    <rect x="66" y="94" width="116" height="72" rx="26" fill="#fff" stroke="#91c4ff" stroke-width="5"/>
    <circle cx="100" cy="129" r="10" fill="#26334f"/>
    <circle cx="150" cy="129" r="10" fill="#26334f"/>
    <path d="M101 151 C113 164 137 164 149 151" stroke="#26334f" stroke-width="6" fill="none" stroke-linecap="round"/>
    <path d="M124 54 V24" stroke="#6aa4ff" stroke-width="7" stroke-linecap="round"/>
    <circle cx="124" cy="18" r="15" fill="#42d3b4"/>
    <path d="M28 116 C-9 128 -7 178 28 190" stroke="#6aa4ff" stroke-width="18" fill="none" stroke-linecap="round"/>
    <path d="M220 116 C258 128 258 178 220 190" stroke="#6aa4ff" stroke-width="18" fill="none" stroke-linecap="round"/>
  </g>
  <g font-family="PingFang SC, Microsoft YaHei, Arial, sans-serif" text-anchor="middle">
    <text x="600" y="90" font-size="52" font-weight="800" fill="#2f3348">我是小导演</text>
    <text x="600" y="146" font-size="34" font-weight="700" fill="#5d6172">AI 帮我把角色、麻烦和神奇道具变成故事</text>
    <text x="600" y="720" font-size="38" font-weight="800" fill="#31405f">故事怎么走，听我的</text>
  </g>
</svg>
