<svg xmlns="http://www.w3.org/2000/svg" width="1200" height="800" viewBox="0 0 1200 800" role="img" aria-labelledby="title desc">
  <title id="title">我的 AI 小作品展</title>
  <desc id="desc">孩子向家人展示和 AI 一起完成的绘本、海报和小发明。</desc>
  <defs>
    <linearGradient id="bg" x1="0" y1="0" x2="0" y2="1">
      <stop offset="0%" stop-color="#e9f7ff"/>
      <stop offset="50%" stop-color="#fff7dc"/>
      <stop offset="100%" stop-color="#fff0f5"/>
    </linearGradient>
    <filter id="shadow" x="-20%" y="-20%" width="140%" height="140%">
      <feDropShadow dx="0" dy="14" stdDeviation="18" flood-color="#4b5b7a" flood-opacity="0.18"/>
    </filter>
  </defs>
  <rect width="1200" height="800" fill="url(#bg)"/>
  <circle cx="126" cy="116" r="70" fill="#c6f3dd" opacity="0.7"/>
  <circle cx="1064" cy="134" r="86" fill="#ffd76a" opacity="0.62"/>
  <text x="600" y="86" text-anchor="middle" font-family="PingFang SC, Microsoft YaHei, Arial, sans-serif" font-size="54" font-weight="800" fill="#26334f">我的 AI 小作品展</text>
  <text x="600" y="140" text-anchor="middle" font-family="PingFang SC, Microsoft YaHei, Arial, sans-serif" font-size="32" font-weight="700" fill="#59627a">我负责想法，AI 帮我做出来</text>
  <g transform="translate(102 190)" filter="url(#shadow)">
    <rect x="0" y="0" width="996" height="438" rx="48" fill="#ffffff" opacity="0.88" stroke="#ffd2a6" stroke-width="6"/>
    <g transform="translate(76 60)">
      <rect x="0" y="0" width="230" height="270" rx="24" fill="#f9fbff" stroke="#9ec5ff" stroke-width="6"/>
      <rect x="28" y="34" width="174" height="128" rx="18" fill="#274a8a"/>
      <circle cx="72" cy="72" r="26" fill="#fff4bc"/>
      <path d="M36 142 C76 100 120 108 156 142 C174 122 194 124 202 142 Z" fill="#bfe9ff"/>
      <text x="115" y="210" text-anchor="middle" font-family="PingFang SC, Microsoft YaHei, Arial, sans-serif" font-size="28" font-weight="800" fill="#31405f">我的绘本</text>
    </g>
    <g transform="translate(382 60)">
      <rect x="0" y="0" width="230" height="270" rx="24" fill="#fff7d1" stroke="#ffbf48" stroke-width="6"/>
      <circle cx="115" cy="92" r="54" fill="#ff8f7d"/>
      <path d="M78 82 C90 50 140 50 152 82" stroke="#fff" stroke-width="8" fill="none" stroke-linecap="round"/>
      <path d="M72 148 h86" stroke="#fff" stroke-width="10" stroke-linecap="round"/>
      <text x="115" y="210" text-anchor="middle" font-family="PingFang SC, Microsoft YaHei, Arial, sans-serif" font-size="28" font-weight="800" fill="#31405f">怪兽图鉴</text>
    </g>
    <g transform="translate(688 60)">
      <rect x="0" y="0" width="230" height="270" rx="24" fill="#effaf5" stroke="#62c9a5" stroke-width="6"/>
      <rect x="72" y="46" width="86" height="96" rx="24" fill="#dff8ff" stroke="#67c7ff" stroke-width="6"/>
      <rect x="88" y="70" width="54" height="34" rx="12" fill="#fff"/>
      <circle cx="104" cy="87" r="5" fill="#26334f"/>
      <circle cx="126" cy="87" r="5" fill="#26334f"/>
      <path d="M105 102 q10 8 20 0" stroke="#26334f" stroke-width="4" fill="none" stroke-linecap="round"/>
      <path d="M115 46 V24" stroke="#67c7ff" stroke-width="5" stroke-linecap="round"/>
      <circle cx="115" cy="18" r="10" fill="#42d3b4"/>
      <text x="115" y="210" text-anchor="middle" font-family="PingFang SC, Microsoft YaHei, Arial, sans-serif" font-size="28" font-weight="800" fill="#31405f">小发明</text>
    </g>
  </g>
  <g transform="translate(422 568)" filter="url(#shadow)">
    <circle cx="178" cy="70" r="50" fill="#ffd0a8"/>
    <path d="M130 68 C140 18 222 8 234 66 C198 48 164 48 130 68Z" fill="#4a342e"/>
    <circle cx="161" cy="68" r="5" fill="#2d1f1b"/>
    <circle cx="197" cy="68" r="5" fill="#2d1f1b"/>
    <path d="M162 90 q16 12 32 0" stroke="#2d1f1b" stroke-width="5" fill="none" stroke-linecap="round"/>
    <path d="M126 122 C148 102 210 102 234 122 L258 198 H98Z" fill="#4b8cff"/>
    <path d="M112 144 C64 136 42 104 58 70" stroke="#ffd0a8" stroke-width="20" fill="none" stroke-linecap="round"/>
    <path d="M244 144 C292 136 314 104 298 70" stroke="#ffd0a8" stroke-width="20" fill="none" stroke-linecap="round"/>
    <rect x="-54" y="-4" width="116" height="72" rx="22" fill="#ffffff" stroke="#62c9a5" stroke-width="5"/>
    <text x="4" y="42" text-anchor="middle" font-family="PingFang SC, Microsoft YaHei, Arial, sans-serif" font-size="25" font-weight="800" fill="#31405f">我做的！</text>
  </g>
  <text x="600" y="746" text-anchor="middle" font-family="PingFang SC, Microsoft YaHei, Arial, sans-serif" font-size="36" font-weight="800" fill="#31405f">最后，我来讲给爸爸妈妈听</text>
</svg>
